<svg width="1440" height="700" fill="none" xmlns="http://www.w3.org/2000/svg">
  <mask id="b" style="mask-type:alpha" maskUnits="userSpaceOnUse" x="0" y="0" width="1440" height="1440">
    <path fill="url(#a)" d="M0 0h1440v1440H0z" />
  </mask>
  <g mask="url(#b)">
    <path fill-rule="evenodd" clip-rule="evenodd" d="M59.5 419.5v-59H0v-1h59.5v-59H0v-1h59.5v-59H0v-1h59.5v-59H0v-1h59.5v-59H0v-1h59.5v-59H0v-1h59.5V0h1v59.5h59V0h1v59.5h59V0h1v59.5h59V0h1v59.5h59V0h1v59.5h59V0h1v59.5h59V0h1v59.5h59V0h1v59.5h59V0h1v59.5h59V0h1v59.5h59V0h1v59.5h59V0h1v59.5h59V0h1v59.5h59V0h1v59.5h59V0h1v59.5h59V0h1v59.5h59V0h1v59.5h59V0h1v59.5h59V0h1v59.5h59V0h1v59.5h59V0h1v59.5h59V0h1v59.5h59V0h1v59.5h59.5v1h-59.5v59h59.5v1h-59.5v59h59.5v1h-59.5v59h59.5v1h-59.5v59h59.5v1h-59.5v59h59.5v1h-59.5v59h59.5v1h-59.5v59h59.5v1h-59.5v59h59.5v1h-59.5v59h59.5v1h-59.5v59h59.5v1h-59.5v59h59.5v1h-59.5v59h59.5v1h-59.5v59h59.5v1h-59.5v59h59.5v1h-59.5v59h59.5v1h-59.5v59h59.5v1h-59.5v59h59.5v1h-59.5v59h59.5v1h-59.5v59h59.5v1h-59.5v59h59.5v1h-59.5v59h59.5v1h-59.5v59h59.5v1h-59.5v59.5h-1v-59.5h-59v59.5h-1v-59.5h-59v59.5h-1v-59.5h-59v59.5h-1v-59.5h-59v59.5h-1v-59.5h-59v59.5h-1v-59.5h-59v59.5h-1v-59.5h-59v59.5h-1v-59.5h-59v59.5h-1v-59.5h-59v59.5h-1v-59.5h-59v59.5h-1v-59.5h-59v59.5h-1v-59.5h-59v59.5h-1v-59.5h-59v59.5h-1v-59.5h-59v59.5h-1v-59.5h-59v59.5h-1v-59.5h-59v59.5h-1v-59.5h-59v59.5h-1v-59.5h-59v59.5h-1v-59.5h-59v59.5h-1v-59.5h-59v59.5h-1v-59.5h-59v59.5h-1v-59.5h-59v59.5h-1v-59.5H0v-1h59.5v-59H0v-1h59.5v-59H0v-1h59.5v-59H0v-1h59.5v-59H0v-1h59.5v-59H0v-1h59.5v-59H0v-1h59.5v-59H0v-1h59.5v-59H0v-1h59.5v-59H0v-1h59.5v-59H0v-1h59.5v-59H0v-1h59.5v-59H0v-1h59.5v-59H0v-1h59.5v-59H0v-1h59.5v-59H0v-1h59.5v-59H0v-1h59.5Zm1 841v59h59v-59h-59Zm59-1h-59v-59h59v59Zm1 1v59h59v-59h-59Zm59-1h-59v-59h59v59Zm1 1v59h59v-59h-59Zm59-1h-59v-59h59v59Zm1 1v59h59v-59h-59Zm59-1h-59v-59h59v59Zm1 1v59h59v-59h-59Zm59-1h-59v-59h59v59Zm1 1v59h59v-59h-59Zm59-1h-59v-59h59v59Zm1 1v59h59v-59h-59Zm59-1h-59v-59h59v59Zm1 1v59h59v-59h-59Zm59-1h-59v-59h59v59Zm1 1v59h59v-59h-59Zm59-1h-59v-59h59v59Zm1 1v59h59v-59h-59Zm59-1h-59v-59h59v59Zm1 1v59h59v-59h-59Zm59-1h-59v-59h59v59Zm1 1v59h59v-59h-59Zm59-1h-59v-59h59v59Zm1 1v59h59v-59h-59Zm59-1h-59v-59h59v59Zm1 1v59h59v-59h-59Zm59-1h-59v-59h59v59Zm1 1v59h59v-59h-59Zm59-1h-59v-59h59v59Zm1 1v59h59v-59h-59Zm59-1h-59v-59h59v59Zm1 1v59h59v-59h-59Zm59-1h-59v-59h59v59Zm1 1v59h59v-59h-59Zm59-1h-59v-59h59v59Zm1 1v59h59v-59h-59Zm59-1h-59v-59h59v59Zm1 1v59h59v-59h-59Zm59-1h-59v-59h59v59Zm1 1v59h59v-59h-59Zm59-1h-59v-59h59v59Zm1 1v59h59v-59h-59Zm59-1h-59v-59h59v59Zm0-419v59h-59v-59h59Zm-60 0v59h-59v-59h59Zm0 60h-59v59h59v-59Zm-60-60v59h-59v-59h59Zm0 60h-59v59h59v-59Zm-60-60v59h-59v-59h59Zm0 60h-59v59h59v-59Zm-60-60v59h-59v-59h59Zm0 60h-59v59h59v-59Zm-60-60v59h-59v-59h59Zm0 60h-59v59h59v-59Zm-60-60v59h-59v-59h59Zm0 60h-59v59h59v-59Zm-60-60v59h-59v-59h59Zm0 60h-59v59h59v-59Zm-60-60v59h-59v-59h59Zm0 60h-59v59h59v-59Zm-60-60v59h-59v-59h59Zm0 60h-59v59h59v-59Zm-60-60v59h-59v-59h59Zm0 60h-59v59h59v-59Zm-60-60v59h-59v-59h59Zm0 60h-59v59h59v-59Zm-60-60v59h-59v-59h59Zm0 60h-59v59h59v-59Zm-60-60v59h-59v-59h59Zm0 60h-59v59h59v-59Zm-60-60v59h-59v-59h59Zm0 60h-59v59h59v-59Zm-60-60v59h-59v-59h59Zm0 60h-59v59h59v-59Zm-60-60v59h-59v-59h59Zm0 60h-59v59h59v-59Zm-60-60v59h-59v-59h59Zm0 60h-59v59h59v-59Zm-60-60v59h-59v-59h59Zm0 60h-59v59h59v-59Zm-60-60v59h-59v-59h59Zm0 60h-59v59h59v-59Zm-60-60v59h-59v-59h59Zm0 60h-59v59h59v-59Zm-60-60v59h-59v-59h59Zm0 60h-59v59h59v-59Zm1260 0h-59v59h59v-59Zm-1319-480v59h59v-59h-59Zm59-1h-59v-59h59v59Zm1 1v59h59v-59h-59Zm59-1h-59v-59h59v59Zm1 1v59h59v-59h-59Zm59-1h-59v-59h59v59Zm1 1v59h59v-59h-59Zm59-1h-59v-59h59v59Zm1 1v59h59v-59h-59Zm59-1h-59v-59h59v59Zm1 1v59h59v-59h-59Zm59-1h-59v-59h59v59Zm1 1v59h59v-59h-59Zm59-1h-59v-59h59v59Zm1 1v59h59v-59h-59Zm59-1h-59v-59h59v59Zm1 1v59h59v-59h-59Zm59-1h-59v-59h59v59Zm1 1v59h59v-59h-59Zm59-1h-59v-59h59v59Zm1 1v59h59v-59h-59Zm59-1h-59v-59h59v59Zm1 1v59h59v-59h-59Zm59-1h-59v-59h59v59Zm1 1v59h59v-59h-59Zm59-1h-59v-59h59v59Zm1 1v59h59v-59h-59Zm59-1h-59v-59h59v59Zm1 1v59h59v-59h-59Zm59-1h-59v-59h59v59Zm1 1v59h59v-59h-59Zm59-1h-59v-59h59v59Zm1 1v59h59v-59h-59Zm59-1h-59v-59h59v59Zm1 1v59h59v-59h-59Zm59-1h-59v-59h59v59Zm1 1v59h59v-59h-59Zm59-1h-59v-59h59v59Zm1 1v59h59v-59h-59Zm59-1h-59v-59h59v59Zm1 1v59h59v-59h-59Zm59-1h-59v-59h59v59Zm1 1v59h59v-59h-59Zm59-1h-59v-59h59v59Zm0 901v59h-59v-59h59Zm-60 0v59h-59v-59h59Zm-60 0v59h-59v-59h59Zm-60 0v59h-59v-59h59Zm-60 0v59h-59v-59h59Zm-60 0v59h-59v-59h59Zm-60 0v59h-59v-59h59Zm-60 0v59h-59v-59h59Zm-60 0v59h-59v-59h59Zm-60 0v59h-59v-59h59Zm-60 0v59h-59v-59h59Zm-60 0v59h-59v-59h59Zm-60 0v59h-59v-59h59Zm-60 0v59h-59v-59h59Zm-60 0v59h-59v-59h59Zm-60 0v59h-59v-59h59Zm-60 0v59h-59v-59h59Zm-60 0v59h-59v-59h59Zm-60 0v59h-59v-59h59Zm-60 0v59h-59v-59h59Zm-60 0v59h-59v-59h59Zm-60 0v59h-59v-59h59Zm1260-360v59h-59v-59h59Zm-60 0v59h-59v-59h59Zm0 60h-59v59h59v-59Zm-60-60v59h-59v-59h59Zm0 60h-59v59h59v-59Zm-60-60v59h-59v-59h59Zm0 60h-59v59h59v-59Zm-60-60v59h-59v-59h59Zm0 60h-59v59h59v-59Zm-60-60v59h-59v-59h59Zm0 60h-59v59h59v-59Zm-60-60v59h-59v-59h59Zm0 60h-59v59h59v-59Zm-60-60v59h-59v-59h59Zm0 60h-59v59h59v-59Zm-60-60v59h-59v-59h59Zm0 60h-59v59h59v-59Zm-60-60v59h-59v-59h59Zm0 60h-59v59h59v-59Zm-60-60v59h-59v-59h59Zm0 60h-59v59h59v-59Zm-60-60v59h-59v-59h59Zm0 60h-59v59h59v-59Zm-60-60v59h-59v-59h59Zm0 60h-59v59h59v-59Zm-60-60v59h-59v-59h59Zm0 60h-59v59h59v-59Zm-60-60v59h-59v-59h59Zm0 60h-59v59h59v-59Zm-60-60v59h-59v-59h59Zm0 60h-59v59h59v-59Zm-60-60v59h-59v-59h59Zm0 60h-59v59h59v-59Zm-60-60v59h-59v-59h59Zm0 60h-59v59h59v-59Zm-60-60v59h-59v-59h59Zm0 60h-59v59h59v-59Zm-60-60v59h-59v-59h59Zm0 60h-59v59h59v-59Zm-60-60v59h-59v-59h59Zm0 60h-59v59h59v-59Zm-60-60v59h-59v-59h59Zm0 60h-59v59h59v-59Zm1260 0h-59v59h59v-59Zm-1319-360v59h59v-59h-59Zm59-1h-59v-59h59v59Zm1 1v59h59v-59h-59Zm59-1h-59v-59h59v59Zm1 1v59h59v-59h-59Zm59-1h-59v-59h59v59Zm1 1v59h59v-59h-59Zm59-1h-59v-59h59v59Zm1 1v59h59v-59h-59Zm59-1h-59v-59h59v59Zm1 1v59h59v-59h-59Zm59-1h-59v-59h59v59Zm1 1v59h59v-59h-59Zm59-1h-59v-59h59v59Zm1 1v59h59v-59h-59Zm59-1h-59v-59h59v59Zm1 1v59h59v-59h-59Zm59-1h-59v-59h59v59Zm1 1v59h59v-59h-59Zm59-1h-59v-59h59v59Zm1 1v59h59v-59h-59Zm59-1h-59v-59h59v59Zm1 1v59h59v-59h-59Zm59-1h-59v-59h59v59Zm1 1v59h59v-59h-59Zm59-1h-59v-59h59v59Zm1 1v59h59v-59h-59Zm59-1h-59v-59h59v59Zm1 1v59h59v-59h-59Zm59-1h-59v-59h59v59Zm1 1v59h59v-59h-59Zm59-1h-59v-59h59v59Zm1 1v59h59v-59h-59Zm59-1h-59v-59h59v59Zm1 1v59h59v-59h-59Zm59-1h-59v-59h59v59Zm1 1v59h59v-59h-59Zm59-1h-59v-59h59v59Zm1 1v59h59v-59h-59Zm59-1h-59v-59h59v59Zm1 1v59h59v-59h-59Zm59-1h-59v-59h59v59Zm1 1v59h59v-59h-59Zm59-1h-59v-59h59v59Zm-1319-420v-59h59v59h-59Zm60 0v-59h59v59h-59Zm0-60h59v-59h-59v59Zm60 60v-59h59v59h-59Zm0-60h59v-59h-59v59Zm60 60v-59h59v59h-59Zm0-60h59v-59h-59v59Zm60 60v-59h59v59h-59Zm0-60h59v-59h-59v59Zm60 60v-59h59v59h-59Zm0-60h59v-59h-59v59Zm60 60v-59h59v59h-59Zm0-60h59v-59h-59v59Zm60 60v-59h59v59h-59Zm0-60h59v-59h-59v59Zm60 60v-59h59v59h-59Zm0-60h59v-59h-59v59Zm60 60v-59h59v59h-59Zm0-60h59v-59h-59v59Zm60 60v-59h59v59h-59Zm0-60h59v-59h-59v59Zm60 60v-59h59v59h-59Zm0-60h59v-59h-59v59Zm60 60v-59h59v59h-59Zm0-60h59v-59h-59v59Zm60 60v-59h59v59h-59Zm0-60h59v-59h-59v59Zm60 60v-59h59v59h-59Zm0-60h59v-59h-59v59Zm60 60v-59h59v59h-59Zm0-60h59v-59h-59v59Zm60 60v-59h59v59h-59Zm0-60h59v-59h-59v59Zm60 60v-59h59v59h-59Zm0-60h59v-59h-59v59Zm60 60v-59h59v59h-59Zm0-60h59v-59h-59v59Zm60 60v-59h59v59h-59Zm0-60h59v-59h-59v59Zm60 60v-59h59v59h-59Zm0-60h59v-59h-59v59Zm60 60v-59h59v59h-59Zm0-60h59v-59h-59v59Zm-1260 0h59v-59h-59v59Zm0 961v59h59v-59h-59Zm59-1h-59v-59h59v59Zm1 1v59h59v-59h-59Zm59-1h-59v-59h59v59Zm1 1v59h59v-59h-59Zm59-1h-59v-59h59v59Zm1 1v59h59v-59h-59Zm59-1h-59v-59h59v59Zm1 1v59h59v-59h-59Zm59-1h-59v-59h59v59Zm1 1v59h59v-59h-59Zm59-1h-59v-59h59v59Zm1 1v59h59v-59h-59Zm59-1h-59v-59h59v59Zm1 1v59h59v-59h-59Zm59-1h-59v-59h59v59Zm1 1v59h59v-59h-59Zm59-1h-59v-59h59v59Zm1 1v59h59v-59h-59Zm59-1h-59v-59h59v59Zm1 1v59h59v-59h-59Zm59-1h-59v-59h59v59Zm1 1v59h59v-59h-59Zm59-1h-59v-59h59v59Zm1 1v59h59v-59h-59Zm59-1h-59v-59h59v59Zm1 1v59h59v-59h-59Zm59-1h-59v-59h59v59Zm1 1v59h59v-59h-59Zm59-1h-59v-59h59v59Zm1 1v59h59v-59h-59Zm59-1h-59v-59h59v59Zm1 1v59h59v-59h-59Zm59-1h-59v-59h59v59Zm1 1v59h59v-59h-59Zm59-1h-59v-59h59v59Zm1 1v59h59v-59h-59Zm59-1h-59v-59h59v59Zm1 1v59h59v-59h-59Zm59-1h-59v-59h59v59Zm1 1v59h59v-59h-59Zm59-1h-59v-59h59v59Zm1 1v59h59v-59h-59Zm59-1h-59v-59h59v59Zm0-419v59h-59v-59h59Zm-60 0v59h-59v-59h59Zm0 60h-59v59h59v-59Zm-60-60v59h-59v-59h59Zm0 60h-59v59h59v-59Zm-60-60v59h-59v-59h59Zm0 60h-59v59h59v-59Zm-60-60v59h-59v-59h59Zm0 60h-59v59h59v-59Zm-60-60v59h-59v-59h59Zm0 60h-59v59h59v-59Zm-60-60v59h-59v-59h59Zm0 60h-59v59h59v-59Zm-60-60v59h-59v-59h59Zm0 60h-59v59h59v-59Zm-60-60v59h-59v-59h59Zm0 60h-59v59h59v-59Zm-60-60v59h-59v-59h59Zm0 60h-59v59h59v-59Zm-60-60v59h-59v-59h59Zm0 60h-59v59h59v-59Zm-60-60v59h-59v-59h59Zm0 60h-59v59h59v-59Zm-60-60v59h-59v-59h59Zm0 60h-59v59h59v-59Zm-60-60v59h-59v-59h59Zm0 60h-59v59h59v-59Zm-60-60v59h-59v-59h59Zm0 60h-59v59h59v-59Zm-60-60v59h-59v-59h59Zm0 60h-59v59h59v-59Zm-60-60v59h-59v-59h59Zm0 60h-59v59h59v-59Zm-60-60v59h-59v-59h59Zm0 60h-59v59h59v-59Zm-60-60v59h-59v-59h59Zm0 60h-59v59h59v-59Zm-60-60v59h-59v-59h59Zm0 60h-59v59h59v-59Zm-60-60v59h-59v-59h59Zm0 60h-59v59h59v-59Zm-60-60v59h-59v-59h59Zm0 60h-59v59h59v-59Zm1260 0h-59v59h59v-59Zm0-481v-59h-59v59h59Zm-59 1h59v59h-59v-59Zm-1-1v-59h-59v59h59Zm-59 1h59v59h-59v-59Zm-1-1v-59h-59v59h59Zm-59 1h59v59h-59v-59Zm-1-1v-59h-59v59h59Zm-59 1h59v59h-59v-59Zm-1-1v-59h-59v59h59Zm-59 1h59v59h-59v-59Zm-1-1v-59h-59v59h59Zm-59 1h59v59h-59v-59Zm-1-1v-59h-59v59h59Zm-59 1h59v59h-59v-59Zm-1-1v-59h-59v59h59Zm-59 1h59v59h-59v-59Zm-1-1v-59h-59v59h59Zm-59 1h59v59h-59v-59Zm-1-1v-59h-59v59h59Zm-59 1h59v59h-59v-59Zm-1-1v-59h-59v59h59Zm-59 1h59v59h-59v-59Zm-1-1v-59h-59v59h59Zm-59 1h59v59h-59v-59Zm-1-1v-59h-59v59h59Zm-59 1h59v59h-59v-59Zm-1-1v-59h-59v59h59Zm-59 1h59v59h-59v-59Zm-1-1v-59h-59v59h59Zm-59 1h59v59h-59v-59Zm-1-1v-59h-59v59h59Zm-59 1h59v59h-59v-59Zm-1-1v-59h-59v59h59Zm-59 1h59v59h-59v-59Zm-1-1v-59h-59v59h59Zm-59 1h59v59h-59v-59Zm-1-1v-59h-59v59h59Zm-59 1h59v59h-59v-59Zm-1-1v-59h-59v59h59Zm-59 1h59v59h-59v-59Zm-1-1v-59h-59v59h59Zm-59 1h59v59h-59v-59Zm-1-1v-59h-59v59h59Zm-59 1h59v59h-59v-59Zm1319 180v59h-59v-59h59Zm-60 0v59h-59v-59h59Zm0 60h-59v59h59v-59Zm-60-60v59h-59v-59h59Zm0 60h-59v59h59v-59Zm-60-60v59h-59v-59h59Zm0 60h-59v59h59v-59Zm-60-60v59h-59v-59h59Zm0 60h-59v59h59v-59Zm-60-60v59h-59v-59h59Zm0 60h-59v59h59v-59Zm-60-60v59h-59v-59h59Zm0 60h-59v59h59v-59Zm-60-60v59h-59v-59h59Zm0 60h-59v59h59v-59Zm-60-60v59h-59v-59h59Zm0 60h-59v59h59v-59Zm-60-60v59h-59v-59h59Zm0 60h-59v59h59v-59Zm-60-60v59h-59v-59h59Zm0 60h-59v59h59v-59Zm-60-60v59h-59v-59h59Zm0 60h-59v59h59v-59Zm-60-60v59h-59v-59h59Zm0 60h-59v59h59v-59Zm-60-60v59h-59v-59h59Zm0 60h-59v59h59v-59Zm-60-60v59h-59v-59h59Zm0 60h-59v59h59v-59Zm-60-60v59h-59v-59h59Zm0 60h-59v59h59v-59Zm-60-60v59h-59v-59h59Zm0 60h-59v59h59v-59Zm-60-60v59h-59v-59h59Zm0 60h-59v59h59v-59Zm-60-60v59h-59v-59h59Zm0 60h-59v59h59v-59Zm-60-60v59h-59v-59h59Zm0 60h-59v59h59v-59Zm-60-60v59h-59v-59h59Zm0 60h-59v59h59v-59Zm-60-60v59h-59v-59h59Zm0 60h-59v59h59v-59Zm1260 0h-59v59h59v-59Zm0-480h-59v59h59v-59Zm-60 0h-59v59h59v-59Zm-60 0h-59v59h59v-59Zm-60 0h-59v59h59v-59Zm-60 0h-59v59h59v-59Zm-60 0h-59v59h59v-59Zm-60 0h-59v59h59v-59Zm-60 0h-59v59h59v-59Zm-60 0h-59v59h59v-59Zm-60 0h-59v59h59v-59Zm-60 0h-59v59h59v-59Zm-60 0h-59v59h59v-59Zm-60 0h-59v59h59v-59Zm-60 0h-59v59h59v-59Zm-60 0h-59v59h59v-59Zm-60 0h-59v59h59v-59Zm-60 0h-59v59h59v-59Zm-60 0h-59v59h59v-59Zm-60 0h-59v59h59v-59Zm-60 0h-59v59h59v-59Zm-60 0h-59v59h59v-59Zm-60 0h-59v59h59v-59Z" fill="#000" fill-opacity=".04" />
  </g>
  <defs>
    <radialGradient id="a" cx="0" cy="0" r="1" gradientUnits="userSpaceOnUse" gradientTransform="matrix(0 1170.5 -689.488 0 720 0)">
      <stop stop-color="#171717" />
      <stop offset="1" stop-color="#171717" stop-opacity="0" />
    </radialGradient>
  </defs>
</svg>