<?xml version="1.0" encoding="UTF-8"?>
<svg id="Layer_2" data-name="Layer 2" xmlns="http://www.w3.org/2000/svg" viewBox="0 0 120.36 120.46">
  <defs>
    <style>
      .cls-1 {
        fill: #fff;
      }
    </style>
  </defs>
  <g id="Layer_1-2" data-name="Layer 1">
    <g>
      <path class="cls-1" d="m61.45.06c.51-.05,1.17-.09,2.01-.04,1.03.06,1.77.34,2.23.8.42.41.65,1.01.61,1.73-.04.73-.29,1.29-.72,1.69-.58.55-1.5.8-2.52.74-.31-.02-.6-.05-.83-.12l-.19,3.23-1.04-.06.46-7.98Zm.82,3.95c.22.07.51.11.86.13,1.26.07,2.06-.49,2.12-1.61.06-1.07-.66-1.62-1.81-1.69-.46-.03-.8,0-.99.03l-.18,3.14Z"/>
      <path class="cls-1" d="m68.53.64c.54-.01,1.29.06,2,.19,1.1.2,1.77.52,2.19,1.06.34.43.47,1.01.36,1.62-.19,1.05-.97,1.63-1.86,1.76v.04c.57.32.83.95.88,1.81.06,1.16.11,1.96.22,2.29l-1.06-.19c-.09-.25-.15-.96-.19-2-.04-1.14-.39-1.63-1.32-1.83l-.97-.17-.61,3.45-1.03-.18,1.4-7.85Zm.38,3.81l1.05.19c1.1.2,1.9-.28,2.06-1.19.18-1.03-.48-1.61-1.57-1.81-.5-.09-.86-.1-1.03-.09l-.52,2.91Z"/>
      <path class="cls-1" d="m78.35,7.26l-3.01-.9-.84,2.79,3.35,1.01-.25.84-4.35-1.31,2.32-7.74,4.18,1.25-.25.84-3.18-.96-.73,2.45,3.01.9-.25.83Z"/>
      <path class="cls-1" d="m78.64,11.34l3.29-7.38,1.04.46.7,4.79c.16,1.11.24,2.08.26,2.99h.03c.35-1.03.73-1.93,1.24-3.08l1.38-3.09.9.4-3.29,7.38-.96-.43-.67-4.79c-.15-1.05-.27-2.11-.28-3.08h-.04c-.36.95-.73,1.85-1.28,3.08l-1.41,3.16-.9-.4Z"/>
      <path class="cls-1" d="m89.84,7.82c.59.26,1.26.61,1.96,1.05,1.26.8,1.98,1.67,2.22,2.61.25.94.1,1.96-.6,3.06-.71,1.11-1.63,1.8-2.67,2.03-1.04.23-2.31-.09-3.64-.94-.63-.4-1.13-.76-1.55-1.1l4.27-6.71Zm-2.96,6.59c.2.18.51.4.86.62,1.88,1.2,3.57.8,4.75-1.05,1.03-1.6.77-3.2-1.09-4.39-.46-.29-.83-.47-1.09-.57l-3.43,5.38Z"/>
      <path class="cls-1" d="m97.12,12.73c.47.26,1.09.7,1.64,1.16.85.72,1.27,1.34,1.36,2.01.08.54-.1,1.11-.5,1.58-.69.82-1.66.92-2.5.59l-.02.03c.34.57.25,1.25-.14,2.01-.53,1.03-.88,1.75-.95,2.1l-.83-.7c.05-.26.36-.91.83-1.83.54-1.01.48-1.61-.22-2.25l-.75-.63-2.26,2.68-.8-.67,5.14-6.1Zm-1.58,3.49l.82.69c.85.72,1.79.71,2.38,0,.67-.8.39-1.63-.45-2.35-.39-.32-.69-.52-.85-.59l-1.9,2.26Z"/>
      <path class="cls-1" d="m102.31,23.36l-2.16-2.29-2.12,2,2.41,2.55-.64.6-3.12-3.31,5.88-5.55,3,3.18-.64.6-2.28-2.42-1.86,1.75,2.16,2.29-.63.59Z"/>
      <path class="cls-1" d="m105.41,33.56c-.37-.21-.96-.74-1.51-1.56-1.27-1.89-1.03-4.12,1.17-5.6,2.1-1.41,4.49-.95,5.89,1.14.56.84.74,1.49.77,1.8l-.85.27c-.06-.44-.26-.98-.63-1.54-1.06-1.57-2.77-1.94-4.53-.76-1.64,1.11-2.06,2.76-.97,4.4.35.53.83.99,1.23,1.23l-.57.64Z"/>
      <path class="cls-1" d="m112.34,38.76c-2.5,1.22-4.57.36-5.48-1.5-.94-1.92-.11-3.99,2.08-5.07,2.31-1.13,4.52-.44,5.47,1.5.97,1.98.08,4.01-2.07,5.06Zm-2.88-5.58c-1.55.76-2.53,2.28-1.81,3.76.73,1.49,2.51,1.66,4.16.85,1.44-.71,2.58-2.2,1.82-3.76-.76-1.55-2.57-1.62-4.17-.84Z"/>
      <path class="cls-1" d="m108.98,41.6l7.71-2.43.34,1.09-3.12,3.7c-.72.86-1.4,1.56-2.07,2.17l.02.02c1-.42,1.93-.73,3.13-1.11l3.23-1.02.3.94-7.71,2.43-.32-1.01,3.14-3.68c.69-.81,1.41-1.6,2.12-2.25l-.02-.03c-.95.36-1.87.68-3.16,1.08l-3.3,1.04-.29-.94Z"/>
      <path class="cls-1" d="m118.49,49.2l-.43-2.42.87-.16,1.05,5.89-.87.16-.43-2.43-7.09,1.26-.19-1.04,7.09-1.26Z"/>
      <path class="cls-1" d="m114.61,54.85l-2.6-.66-.08-1.08,8.27,2.18.09,1.26-7.88,3.32-.08-1.11,2.48-1.04-.2-2.86Zm1,2.59l2.27-.95c.51-.22.99-.37,1.44-.52v-.02c-.49-.09-.99-.18-1.49-.3l-2.39-.63.17,2.43Z"/>
      <path class="cls-1" d="m112.3,66.28c-.17-.39-.32-1.17-.26-2.15.13-2.28,1.67-3.91,4.31-3.75,2.53.15,4.14,1.96,4,4.46-.06,1.01-.31,1.63-.47,1.9l-.84-.3c.21-.38.39-.94.43-1.61.11-1.89-1.03-3.22-3.15-3.34-1.98-.11-3.31.95-3.42,2.92-.04.63.06,1.29.24,1.72l-.84.17Z"/>
      <path class="cls-1" d="m118.61,70.45l.45-2.42.87.16-1.09,5.89-.87-.16.45-2.43-7.08-1.31.19-1.04,7.08,1.31Z"/>
      <path class="cls-1" d="m113.12,88.74c-.18.48-.46,1.08-.88,1.8-.52.89-1.12,1.42-1.73,1.61-.56.19-1.2.12-1.82-.25-.63-.37-1.02-.85-1.17-1.42-.23-.77-.03-1.7.49-2.58.16-.27.32-.51.49-.69l-2.79-1.65.53-.9,6.88,4.06Zm-3.89-1.08c-.17.17-.33.4-.51.7-.64,1.08-.5,2.06.46,2.62.92.54,1.75.16,2.33-.84.23-.39.38-.71.43-.89l-2.71-1.6Z"/>
      <path class="cls-1" d="m109.38,94.76c-.23.48-.65,1.12-1.08,1.69-.68.89-1.28,1.33-1.94,1.46-.53.11-1.11-.05-1.61-.43-.85-.65-1-1.61-.72-2.46l-.03-.02c-.55.37-1.23.31-2.02-.05-1.06-.47-1.79-.79-2.14-.85l.66-.86c.26.03.92.31,1.86.74,1.03.49,1.63.4,2.23-.33l.6-.78-2.78-2.12.63-.83,6.34,4.84Zm-3.56-1.41l-.65.85c-.68.89-.62,1.82.11,2.38.83.63,1.65.31,2.33-.56.31-.4.49-.72.55-.88l-2.35-1.79Z"/>
      <path class="cls-1" d="m99,100.45l2.18-2.27-2.1-2.02-2.43,2.53-.63-.61,3.15-3.28,5.83,5.61-3.03,3.15-.63-.61,2.3-2.4-1.84-1.77-2.18,2.27-.62-.6Z"/>
      <path class="cls-1" d="m95.23,98.85l5.07,6.29-.89.71-4.58-1.56c-1.06-.36-1.96-.73-2.78-1.13v.02c.74.78,1.38,1.53,2.17,2.51l2.12,2.63-.77.62-5.07-6.29.82-.66,4.57,1.58c1,.35,2,.73,2.87,1.15l.02-.03c-.69-.76-1.31-1.5-2.16-2.54l-2.17-2.69.77-.62Z"/>
      <path class="cls-1" d="m93.29,110.42c-.5.41-1.11.85-1.83,1.27-1.29.76-2.39,1-3.34.79-.96-.2-1.79-.8-2.46-1.92-.67-1.14-.87-2.28-.59-3.3.27-1.04,1.14-2.02,2.49-2.82.64-.38,1.2-.66,1.68-.88l4.04,6.86Zm-4.53-5.64c-.25.09-.59.28-.94.48-1.92,1.13-2.34,2.82-1.23,4.71.96,1.65,2.5,2.15,4.41,1.03.47-.27.79-.52,1-.71l-3.24-5.5Z"/>
      <path class="cls-1" d="m85.58,114.68c-.45.3-1.12.65-1.78.93-1.03.43-1.77.52-2.41.3-.52-.17-.94-.59-1.18-1.17-.41-.98-.07-1.9.61-2.49v-.03c-.67.04-1.24-.34-1.74-1.04-.68-.94-1.16-1.58-1.43-1.81l1-.42c.21.16.65.73,1.24,1.57.65.94,1.21,1.16,2.1.82l.91-.38-1.35-3.23.96-.4,3.08,7.36Zm-2.39-2.99l-.98.41c-1.03.43-1.45,1.27-1.09,2.12.4.96,1.28,1.09,2.3.68.46-.2.78-.38.91-.49l-1.14-2.72Z"/>
      <path class="cls-1" d="m73.74,114.44l3.02-.88-.81-2.8-3.36.98-.24-.84,4.37-1.27,2.25,7.76-4.19,1.22-.24-.84,3.19-.93-.71-2.45-3.02.88-.24-.83Z"/>
      <path class="cls-1" d="m63.27,112.52c.36-.24,1.1-.51,2.08-.63,2.26-.26,4.13.97,4.44,3.6.29,2.51-1.21,4.42-3.7,4.71-1,.12-1.66-.02-1.95-.14l.15-.88c.42.14.99.22,1.66.14,1.88-.22,2.99-1.57,2.75-3.68-.23-1.97-1.51-3.1-3.46-2.87-.63.07-1.26.28-1.65.53l-.31-.8Z"/>
      <path class="cls-1" d="m55.44,116.3c.05-2.78,1.77-4.23,3.83-4.19,2.14.04,3.6,1.72,3.56,4.17-.05,2.57-1.68,4.21-3.83,4.17-2.21-.04-3.6-1.76-3.56-4.16Zm6.27-.01c.03-1.73-.87-3.29-2.52-3.32-1.65-.03-2.62,1.47-2.65,3.31-.03,1.61.78,3.3,2.52,3.34,1.73.03,2.62-1.55,2.65-3.32Z"/>
      <path class="cls-1" d="m54.47,112.03l-1.35,7.97-1.12-.19-1.87-4.46c-.43-1.03-.75-1.95-.99-2.83h-.03c-.09,1.09-.23,2.06-.44,3.3l-.56,3.33-.97-.16,1.35-7.97,1.04.18,1.85,4.47c.41.98.78,1.98,1.04,2.91h.04c.11-1.02.25-1.98.47-3.31l.58-3.41.97.16Z"/>
      <path class="cls-1" d="m43.4,117.04l2.35.72-.26.85-5.73-1.75.26-.85,2.36.72,2.11-6.88,1.01.31-2.11,6.88Z"/>
      <path class="cls-1" d="m40.11,111l1.77-2.01.99.42-5.7,6.36-1.16-.5.64-8.52,1.03.44-.21,2.68,2.64,1.13Zm-2.76-.29l-.19,2.45c-.04.56-.12,1.04-.19,1.52h.02c.3-.38.61-.79.95-1.18l1.65-1.84-2.24-.96Z"/>
      <path class="cls-1" d="m31.01,103.73c.43.03,1.19.25,2.03.75,1.96,1.16,2.71,3.27,1.36,5.55-1.28,2.18-3.63,2.79-5.79,1.51-.87-.51-1.31-1.02-1.47-1.28l.65-.61c.24.37.66.78,1.23,1.12,1.63.96,3.33.56,4.41-1.27,1-1.7.67-3.38-1.03-4.38-.55-.32-1.17-.54-1.64-.58l.23-.82Z"/>
      <path class="cls-1" d="m24.38,107.41l1.95,1.5-.54.7-4.74-3.66.54-.7,1.96,1.51,4.4-5.7.84.65-4.4,5.69Z"/>
      <path class="cls-1" d="m9.11,91.84c-.32-.4-.71-.93-1.13-1.66-.51-.9-.68-1.67-.54-2.3.11-.58.49-1.1,1.12-1.45.64-.36,1.24-.46,1.81-.31.78.19,1.49.82,1.99,1.71.15.27.29.53.35.77l2.81-1.6.52.91-6.94,3.95Zm2.87-2.84c-.06-.23-.18-.49-.35-.79-.62-1.09-1.53-1.46-2.5-.91-.93.53-1,1.44-.43,2.44.23.4.43.68.56.81l2.73-1.56Z"/>
      <path class="cls-1" d="m5.73,85.6c-.3-.44-.65-1.12-.93-1.78-.43-1.03-.52-1.77-.3-2.41.17-.52.59-.94,1.17-1.18.98-.42,1.9-.07,2.49.6h.03c-.04-.67.34-1.24,1.04-1.74.94-.68,1.58-1.16,1.8-1.44l.42,1c-.16.21-.73.65-1.57,1.25-.94.65-1.16,1.21-.82,2.1l.38.91,3.23-1.36.41.96-7.36,3.09Zm2.99-2.39l-.41-.99c-.43-1.03-1.27-1.44-2.12-1.08-.96.4-1.09,1.28-.67,2.3.2.46.38.78.49.91l2.72-1.14Z"/>
      <path class="cls-1" d="m5.96,73.78l.88,3.02,2.8-.82-.98-3.36.84-.25,1.27,4.37-7.77,2.26-1.22-4.19.84-.25.93,3.19,2.45-.71-.88-3.02.83-.24Z"/>
      <path class="cls-1" d="m9.23,71.28l-7.99,1.25-.18-1.13,3.64-3.2c.84-.74,1.61-1.33,2.37-1.84l-.02-.02c-1.05.26-2.02.44-3.27.63l-3.34.52-.15-.97,7.99-1.25.16,1.04-3.66,3.17c-.8.7-1.63,1.37-2.43,1.91l.02.03c1-.22,1.96-.39,3.28-.6l3.41-.54.15.97Z"/>
      <path class="cls-1" d="m.21,63.87c-.11-.63-.19-1.39-.2-2.22-.02-1.5.31-2.57.95-3.29.65-.73,1.58-1.17,2.88-1.19,1.32-.02,2.41.37,3.16,1.11.77.74,1.2,1.98,1.22,3.55.01.74-.01,1.37-.06,1.9l-7.95.13Zm7.13-1.16c.04-.26.05-.65.04-1.06-.04-2.23-1.3-3.42-3.49-3.38-1.91.02-3.1,1.12-3.06,3.33,0,.54.06.95.13,1.22l6.38-.11Z"/>
      <path class="cls-1" d="m.32,55.04c-.04-.54-.01-1.3.08-2.01.14-1.11.43-1.8.94-2.24.41-.36.98-.52,1.6-.44,1.06.13,1.68.88,1.86,1.77h.04c.29-.59.91-.89,1.77-.98,1.15-.12,1.95-.22,2.28-.35l-.13,1.07c-.24.1-.96.2-1.98.3-1.14.1-1.61.48-1.76,1.42l-.12.98,3.48.43-.13,1.04-7.92-.97Zm3.79-.59l.13-1.06c.14-1.11-.39-1.89-1.3-2-1.04-.13-1.58.57-1.73,1.66-.06.5-.06.86-.03,1.04l2.93.36Z"/>
      <path class="cls-1" d="m6.41,44.88l-.74,3.05,2.83.69.82-3.4.85.21-1.07,4.42-7.86-1.9,1.03-4.24.85.21-.78,3.23,2.48.6.74-3.05.84.2Z"/>
      <path class="cls-1" d="m13.29,36.74c.03.43-.1,1.21-.49,2.12-.9,2.1-2.9,3.11-5.34,2.06-2.33-1-3.23-3.25-2.24-5.56.4-.93.85-1.43,1.09-1.62l.68.57c-.33.29-.69.75-.95,1.37-.75,1.74-.13,3.38,1.82,4.22,1.82.78,3.44.23,4.21-1.58.25-.58.38-1.23.36-1.7l.85.13Z"/>
      <path class="cls-1" d="m13.91,28.08c2.39,1.43,2.78,3.64,1.72,5.41-1.1,1.83-3.29,2.26-5.39,1-2.2-1.32-2.82-3.56-1.71-5.41,1.14-1.89,3.32-2.25,5.38-1.01Zm-3.12,5.45c1.48.89,3.29.89,4.14-.52.85-1.42.03-3.01-1.54-3.95-1.38-.83-3.25-.97-4.15.52-.89,1.48.03,3.04,1.56,3.96Z"/>
      <path class="cls-1" d="m18.1,29.37l-6.23-5.15.73-.88,4.8.61c1.11.14,2.07.32,2.95.55v-.03c-.89-.61-1.66-1.22-2.63-2.02l-2.61-2.16.63-.76,6.23,5.15-.67.81-4.8-.64c-1.05-.14-2.11-.31-3.04-.55v.04c.81.6,1.57,1.2,2.61,2.06l2.66,2.2-.63.76Z"/>
      <path class="cls-1" d="m19.28,17.28l-1.8,1.68-.61-.65,4.37-4.1.61.65-1.8,1.69,4.93,5.26-.77.72-4.93-5.25Z"/>
      <path class="cls-1" d="m26.14,17.45l.86,2.53-.86.65-2.68-8.11,1-.76,7.08,4.78-.89.67-2.22-1.51-2.29,1.73Zm1.62-2.25l-2.03-1.38c-.46-.31-.85-.62-1.22-.92h-.02c.19.47.38.94.56,1.43l.78,2.34,1.94-1.47Z"/>
      <path class="cls-1" d="m36.97,13.15c-.24.36-.81.9-1.66,1.39-1.98,1.13-4.18.73-5.5-1.57-1.26-2.2-.62-4.54,1.56-5.78.88-.5,1.53-.63,1.85-.64l.2.87c-.44.03-1,.18-1.58.52-1.65.94-2.14,2.62-1.09,4.46.98,1.72,2.6,2.26,4.31,1.28.55-.32,1.05-.75,1.31-1.14l.6.61Z"/>
      <path class="cls-1" d="m37.06,5.57l-2.27.94-.34-.82,5.54-2.29.34.82-2.29.95,2.76,6.66-.98.4-2.76-6.66Z"/>
    </g>
  </g>
</svg>